<svg xmlns="http://www.w3.org/2000/svg" version="1.1" viewBox="0 0 24 24"><g fill="none" fill-rule="evenodd" stroke="none" stroke-width="1"><path d="M0 0h24v24H0z"/><path d="M4 12v7a2 2 0 0 0 2 2h12a2 2 0 0 0 2-2v-7M9 8h6v1a3 3 0 0 1-3 3h0a3 3 0 0 1-3-3V8Zm6 0h5.556c.245 0 .444.199.444.444V9a3 3 0 0 1-3 3h0a3 3 0 0 1-3-3V8ZM3 8.444C3 8.2 3.199 8 3.444 8H9v1a3 3 0 0 1-3 3h0a3 3 0 0 1-3-3v-.556Zm.826-5.033A.5.5 0 0 1 4.318 3h15.364a.5.5 0 0 1 .492.411l.72 4a.5.5 0 0 1-.492.589H3.598a.5.5 0 0 1-.492-.589l.72-4Z" stroke="#0C0310" stroke-linecap="round" stroke-width="2"/><path d="M9 16a1 1 0 0 1 1-1h4a1 1 0 0 1 1 1v5H9v-5Z" stroke="#0C0310" stroke-linecap="round" stroke-width="2"/></g></svg>